<svg width="100" height="100" viewBox="0 0 100 100" fill="none" xmlns="http://www.w3.org/2000/svg">
<g id="check_circle_24px">
<path id="icon/action/check_circle_24px" fill-rule="evenodd" clip-rule="evenodd" d="M50 8.33334C27 8.33334 8.33337 27 8.33337 50C8.33337 73 27 91.6667 50 91.6667C73 91.6667 91.6667 73 91.6667 50C91.6667 27 73 8.33334 50 8.33334ZM50.0001 83.3333C31.6251 83.3333 16.6667 68.375 16.6667 50C16.6667 31.625 31.6251 16.6667 50.0001 16.6667C68.375 16.6667 83.3334 31.625 83.3334 50C83.3334 68.375 68.375 83.3333 50.0001 83.3333ZM41.6667 59.0417L69.125 31.5833L75 37.5L41.6667 70.8333L25 54.1667L30.875 48.2917L41.6667 59.0417Z" fill="#27AE60"/>
</g>
</svg>
