<svg width="684" height="113" viewBox="0 0 684 113" fill="none" xmlns="http://www.w3.org/2000/svg">
<path d="M134.062 89H120V59.75H92.5781V89H78.5156V20.75H92.5781V48.4062H120V20.75H134.062V89ZM174.891 89C174.266 87.7812 173.812 86.2656 173.531 84.4531C170.25 88.1094 165.984 89.9375 160.734 89.9375C155.766 89.9375 151.641 88.5 148.359 85.625C145.109 82.75 143.484 79.125 143.484 74.75C143.484 69.375 145.469 65.25 149.438 62.375C153.438 59.5 159.203 58.0469 166.734 58.0156H172.969V55.1094C172.969 52.7656 172.359 50.8906 171.141 49.4844C169.953 48.0781 168.062 47.375 165.469 47.375C163.188 47.375 161.391 47.9219 160.078 49.0156C158.797 50.1094 158.156 51.6094 158.156 53.5156H144.609C144.609 50.5781 145.516 47.8594 147.328 45.3594C149.141 42.8594 151.703 40.9062 155.016 39.5C158.328 38.0625 162.047 37.3438 166.172 37.3438C172.422 37.3438 177.375 38.9219 181.031 42.0781C184.719 45.2031 186.562 49.6094 186.562 55.2969V77.2812C186.594 82.0938 187.266 85.7344 188.578 88.2031V89H174.891ZM163.688 79.5781C165.688 79.5781 167.531 79.1406 169.219 78.2656C170.906 77.3594 172.156 76.1562 172.969 74.6562V65.9375H167.906C161.125 65.9375 157.516 68.2812 157.078 72.9688L157.031 73.7656C157.031 75.4531 157.625 76.8438 158.812 77.9375C160 79.0312 161.625 79.5781 163.688 79.5781ZM209.438 38.2812L209.859 44.1406C213.484 39.6094 218.344 37.3438 224.438 37.3438C229.812 37.3438 233.812 38.9219 236.438 42.0781C239.062 45.2344 240.406 49.9531 240.469 56.2344V89H226.922V56.5625C226.922 53.6875 226.297 51.6094 225.047 50.3281C223.797 49.0156 221.719 48.3594 218.812 48.3594C215 48.3594 212.141 49.9844 210.234 53.2344V89H196.688V38.2812H209.438ZM248.672 63.2656C248.672 55.3594 250.438 49.0625 253.969 44.375C257.531 39.6875 262.391 37.3438 268.547 37.3438C273.484 37.3438 277.562 39.1875 280.781 42.875V17H294.375V89H282.141L281.484 83.6094C278.109 87.8281 273.766 89.9375 268.453 89.9375C262.484 89.9375 257.688 87.5938 254.062 82.9062C250.469 78.1875 248.672 71.6406 248.672 63.2656ZM262.219 64.25C262.219 69 263.047 72.6406 264.703 75.1719C266.359 77.7031 268.766 78.9688 271.922 78.9688C276.109 78.9688 279.062 77.2031 280.781 73.6719V53.6562C279.094 50.125 276.172 48.3594 272.016 48.3594C265.484 48.3594 262.219 53.6562 262.219 64.25ZM358.922 69.3125L368.109 20.75H382.125L366.984 89H352.828L341.719 43.3438L330.609 89H316.453L301.312 20.75H315.328L324.562 69.2188L335.812 20.75H347.719L358.922 69.3125ZM416.672 89C416.047 87.7812 415.594 86.2656 415.312 84.4531C412.031 88.1094 407.766 89.9375 402.516 89.9375C397.547 89.9375 393.422 88.5 390.141 85.625C386.891 82.75 385.266 79.125 385.266 74.75C385.266 69.375 387.25 65.25 391.219 62.375C395.219 59.5 400.984 58.0469 408.516 58.0156H414.75V55.1094C414.75 52.7656 414.141 50.8906 412.922 49.4844C411.734 48.0781 409.844 47.375 407.25 47.375C404.969 47.375 403.172 47.9219 401.859 49.0156C400.578 50.1094 399.938 51.6094 399.938 53.5156H386.391C386.391 50.5781 387.297 47.8594 389.109 45.3594C390.922 42.8594 393.484 40.9062 396.797 39.5C400.109 38.0625 403.828 37.3438 407.953 37.3438C414.203 37.3438 419.156 38.9219 422.812 42.0781C426.5 45.2031 428.344 49.6094 428.344 55.2969V77.2812C428.375 82.0938 429.047 85.7344 430.359 88.2031V89H416.672ZM405.469 79.5781C407.469 79.5781 409.312 79.1406 411 78.2656C412.688 77.3594 413.938 76.1562 414.75 74.6562V65.9375H409.688C402.906 65.9375 399.297 68.2812 398.859 72.9688L398.812 73.7656C398.812 75.4531 399.406 76.8438 400.594 77.9375C401.781 79.0312 403.406 79.5781 405.469 79.5781ZM466.219 74.9844C466.219 73.3281 465.391 72.0312 463.734 71.0938C462.109 70.125 459.484 69.2656 455.859 68.5156C443.797 65.9844 437.766 60.8594 437.766 53.1406C437.766 48.6406 439.625 44.8906 443.344 41.8906C447.094 38.8594 451.984 37.3438 458.016 37.3438C464.453 37.3438 469.594 38.8594 473.438 41.8906C477.312 44.9219 479.25 48.8594 479.25 53.7031H465.703C465.703 51.7656 465.078 50.1719 463.828 48.9219C462.578 47.6406 460.625 47 457.969 47C455.688 47 453.922 47.5156 452.672 48.5469C451.422 49.5781 450.797 50.8906 450.797 52.4844C450.797 53.9844 451.5 55.2031 452.906 56.1406C454.344 57.0469 456.75 57.8438 460.125 58.5312C463.5 59.1875 466.344 59.9375 468.656 60.7812C475.812 63.4062 479.391 67.9531 479.391 74.4219C479.391 79.0469 477.406 82.7969 473.438 85.6719C469.469 88.5156 464.344 89.9375 458.062 89.9375C453.812 89.9375 450.031 89.1875 446.719 87.6875C443.438 86.1562 440.859 84.0781 438.984 81.4531C437.109 78.7969 436.172 75.9375 436.172 72.875H449.016C449.141 75.2812 450.031 77.125 451.688 78.4062C453.344 79.6875 455.562 80.3281 458.344 80.3281C460.938 80.3281 462.891 79.8438 464.203 78.875C465.547 77.875 466.219 76.5781 466.219 74.9844ZM501.375 43.8125C504.969 39.5 509.484 37.3438 514.922 37.3438C525.922 37.3438 531.5 43.7344 531.656 56.5156V89H518.109V56.8906C518.109 53.9844 517.484 51.8438 516.234 50.4688C514.984 49.0625 512.906 48.3594 510 48.3594C506.031 48.3594 503.156 49.8906 501.375 52.9531V89H487.828V17H501.375V43.8125Z" fill="#00A3FF"/>
<path d="M553.594 62.2812V89H544.594V20.75H569.766C577.234 20.75 583.078 22.6563 587.297 26.4688C591.547 30.2812 593.672 35.3281 593.672 41.6094C593.672 48.2344 591.594 53.3438 587.438 56.9375C583.312 60.5 577.391 62.2812 569.672 62.2812H553.594ZM553.594 54.9219H569.766C574.578 54.9219 578.266 53.7969 580.828 51.5469C583.391 49.2656 584.672 45.9844 584.672 41.7031C584.672 37.6406 583.391 34.3906 580.828 31.9531C578.266 29.5156 574.75 28.25 570.281 28.1562H553.594V54.9219ZM628.312 46.0625C627 45.8438 625.578 45.7344 624.047 45.7344C618.359 45.7344 614.5 48.1562 612.469 53V89H603.797V38.2812H612.234L612.375 44.1406C615.219 39.6094 619.25 37.3438 624.469 37.3438C626.156 37.3438 627.438 37.5625 628.312 38V46.0625ZM633.094 63.1719C633.094 58.2031 634.062 53.7344 636 49.7656C637.969 45.7969 640.688 42.7344 644.156 40.5781C647.656 38.4219 651.641 37.3438 656.109 37.3438C663.016 37.3438 668.594 39.7344 672.844 44.5156C677.125 49.2969 679.266 55.6562 679.266 63.5938V64.2031C679.266 69.1406 678.312 73.5781 676.406 77.5156C674.531 81.4219 671.828 84.4688 668.297 86.6562C664.797 88.8438 660.766 89.9375 656.203 89.9375C649.328 89.9375 643.75 87.5469 639.469 82.7656C635.219 77.9844 633.094 71.6562 633.094 63.7812V63.1719ZM641.812 64.2031C641.812 69.8281 643.109 74.3438 645.703 77.75C648.328 81.1562 651.828 82.8594 656.203 82.8594C660.609 82.8594 664.109 81.1406 666.703 77.7031C669.297 74.2344 670.594 69.3906 670.594 63.1719C670.594 57.6094 669.266 53.1094 666.609 49.6719C663.984 46.2031 660.484 44.4688 656.109 44.4688C651.828 44.4688 648.375 46.1719 645.75 49.5781C643.125 52.9844 641.812 57.8594 641.812 64.2031Z" fill="white"/>
<ellipse cx="13.6364" cy="69.9694" rx="13.6364" ry="14.0306" fill="white"/>
<ellipse cx="46.3639" cy="69.9694" rx="13.6364" ry="14.0306" fill="white"/>
<ellipse cx="30.5455" cy="43.0306" rx="13.6364" ry="14.0306" fill="#00A3FF"/>
</svg>
