<svg width="275" height="44" viewBox="0 0 275 44" fill="none" xmlns="http://www.w3.org/2000/svg">
<g filter="url(#filter0_b)">
<path d="M55.1152 35H49.8418V24.0312H39.5586V35H34.2852V9.40625H39.5586V19.7773H49.8418V9.40625H55.1152V35ZM69.4258 35C69.1914 34.543 69.0215 33.9746 68.916 33.2949C67.6855 34.666 66.0859 35.3516 64.1172 35.3516C62.2539 35.3516 60.707 34.8125 59.4766 33.7344C58.2578 32.6562 57.6484 31.2969 57.6484 29.6562C57.6484 27.6406 58.3926 26.0938 59.8809 25.0156C61.3809 23.9375 63.543 23.3926 66.3672 23.3809H68.7051V22.291C68.7051 21.4121 68.4766 20.709 68.0195 20.1816C67.5742 19.6543 66.8652 19.3906 65.8926 19.3906C65.0371 19.3906 64.3633 19.5957 63.8711 20.0059C63.3906 20.416 63.1504 20.9785 63.1504 21.6934H58.0703C58.0703 20.5918 58.4102 19.5723 59.0898 18.6348C59.7695 17.6973 60.7305 16.9648 61.9727 16.4375C63.2148 15.8984 64.6094 15.6289 66.1562 15.6289C68.5 15.6289 70.3574 16.2207 71.7285 17.4043C73.1113 18.5762 73.8027 20.2285 73.8027 22.3613V30.6055C73.8145 32.4102 74.0664 33.7754 74.5586 34.7012V35H69.4258ZM65.2246 31.4668C65.9746 31.4668 66.666 31.3027 67.2988 30.9746C67.9316 30.6348 68.4004 30.1836 68.7051 29.6211V26.3516H66.8066C64.2637 26.3516 62.9102 27.2305 62.7461 28.9883L62.7285 29.2871C62.7285 29.9199 62.9512 30.4414 63.3965 30.8516C63.8418 31.2617 64.4512 31.4668 65.2246 31.4668ZM81.3809 15.9805L81.5391 18.1777C82.8984 16.4785 84.7207 15.6289 87.0059 15.6289C89.0215 15.6289 90.5215 16.2207 91.5059 17.4043C92.4902 18.5879 92.9941 20.3574 93.0176 22.7129V35H87.9375V22.8359C87.9375 21.7578 87.7031 20.9785 87.2344 20.498C86.7656 20.0059 85.9863 19.7598 84.8965 19.7598C83.4668 19.7598 82.3945 20.3691 81.6797 21.5879V35H76.5996V15.9805H81.3809ZM95.0938 25.3496C95.0938 22.3848 95.7559 20.0234 97.0801 18.2656C98.416 16.5078 100.238 15.6289 102.547 15.6289C104.398 15.6289 105.928 16.3203 107.135 17.7031V8H112.232V35H107.645L107.398 32.9785C106.133 34.5605 104.504 35.3516 102.512 35.3516C100.273 35.3516 98.4746 34.4727 97.1152 32.7148C95.7676 30.9453 95.0938 28.4902 95.0938 25.3496ZM100.174 25.7188C100.174 27.5 100.484 28.8652 101.105 29.8145C101.727 30.7637 102.629 31.2383 103.812 31.2383C105.383 31.2383 106.49 30.5762 107.135 29.252V21.7461C106.502 20.4219 105.406 19.7598 103.848 19.7598C101.398 19.7598 100.174 21.7461 100.174 25.7188ZM135.438 27.6172L138.883 9.40625H144.139L138.461 35H133.152L128.986 17.8789L124.82 35H119.512L113.834 9.40625H119.09L122.553 27.582L126.771 9.40625H131.236L135.438 27.6172ZM156.094 35C155.859 34.543 155.689 33.9746 155.584 33.2949C154.354 34.666 152.754 35.3516 150.785 35.3516C148.922 35.3516 147.375 34.8125 146.145 33.7344C144.926 32.6562 144.316 31.2969 144.316 29.6562C144.316 27.6406 145.061 26.0938 146.549 25.0156C148.049 23.9375 150.211 23.3926 153.035 23.3809H155.373V22.291C155.373 21.4121 155.145 20.709 154.688 20.1816C154.242 19.6543 153.533 19.3906 152.561 19.3906C151.705 19.3906 151.031 19.5957 150.539 20.0059C150.059 20.416 149.818 20.9785 149.818 21.6934H144.738C144.738 20.5918 145.078 19.5723 145.758 18.6348C146.438 17.6973 147.398 16.9648 148.641 16.4375C149.883 15.8984 151.277 15.6289 152.824 15.6289C155.168 15.6289 157.025 16.2207 158.396 17.4043C159.779 18.5762 160.471 20.2285 160.471 22.3613V30.6055C160.482 32.4102 160.734 33.7754 161.227 34.7012V35H156.094ZM151.893 31.4668C152.643 31.4668 153.334 31.3027 153.967 30.9746C154.6 30.6348 155.068 30.1836 155.373 29.6211V26.3516H153.475C150.932 26.3516 149.578 27.2305 149.414 28.9883L149.396 29.2871C149.396 29.9199 149.619 30.4414 150.064 30.8516C150.51 31.2617 151.119 31.4668 151.893 31.4668ZM173.674 29.7441C173.674 29.123 173.363 28.6367 172.742 28.2852C172.133 27.9219 171.148 27.5996 169.789 27.3184C165.266 26.3691 163.004 24.4473 163.004 21.5527C163.004 19.8652 163.701 18.459 165.096 17.334C166.502 16.1973 168.336 15.6289 170.598 15.6289C173.012 15.6289 174.939 16.1973 176.381 17.334C177.834 18.4707 178.561 19.9473 178.561 21.7637H173.48C173.48 21.0371 173.246 20.4395 172.777 19.9707C172.309 19.4902 171.576 19.25 170.58 19.25C169.725 19.25 169.062 19.4434 168.594 19.8301C168.125 20.2168 167.891 20.709 167.891 21.3066C167.891 21.8691 168.154 22.3262 168.682 22.6777C169.221 23.0176 170.123 23.3164 171.389 23.5742C172.654 23.8203 173.721 24.1016 174.588 24.418C177.271 25.4023 178.613 27.1074 178.613 29.5332C178.613 31.2676 177.869 32.6738 176.381 33.752C174.893 34.8184 172.971 35.3516 170.615 35.3516C169.021 35.3516 167.604 35.0703 166.361 34.5078C165.131 33.9336 164.164 33.1543 163.461 32.1699C162.758 31.1738 162.406 30.1016 162.406 28.9531H167.223C167.27 29.8555 167.604 30.5469 168.225 31.0273C168.846 31.5078 169.678 31.748 170.721 31.748C171.693 31.748 172.426 31.5664 172.918 31.2031C173.422 30.8281 173.674 30.3418 173.674 29.7441ZM185.857 18.0547C187.205 16.4375 188.898 15.6289 190.938 15.6289C195.062 15.6289 197.154 18.0254 197.213 22.8184V35H192.133V22.959C192.133 21.8691 191.898 21.0664 191.43 20.5508C190.961 20.0234 190.182 19.7598 189.092 19.7598C187.604 19.7598 186.525 20.334 185.857 21.4824V35H180.777V8H185.857V18.0547Z" fill="#00A3FF"/>
<path d="M204.439 24.9805V35H201.064V9.40625H210.504C213.305 9.40625 215.496 10.1211 217.078 11.5508C218.672 12.9805 219.469 14.873 219.469 17.2285C219.469 19.7129 218.689 21.6289 217.131 22.9766C215.584 24.3125 213.363 24.9805 210.469 24.9805H204.439ZM204.439 22.2207H210.504C212.309 22.2207 213.691 21.7988 214.652 20.9551C215.613 20.0996 216.094 18.8691 216.094 17.2637C216.094 15.7402 215.613 14.5215 214.652 13.6074C213.691 12.6934 212.373 12.2188 210.697 12.1836H204.439V22.2207ZM231.459 18.8984C230.967 18.8164 230.434 18.7754 229.859 18.7754C227.727 18.7754 226.279 19.6836 225.518 21.5V35H222.266V15.9805H225.43L225.482 18.1777C226.549 16.4785 228.061 15.6289 230.018 15.6289C230.65 15.6289 231.131 15.7109 231.459 15.875V18.8984ZM232.252 25.3145C232.252 23.4512 232.615 21.7754 233.342 20.2871C234.08 18.7988 235.1 17.6504 236.4 16.8418C237.713 16.0332 239.207 15.6289 240.883 15.6289C243.473 15.6289 245.564 16.5254 247.158 18.3184C248.764 20.1113 249.566 22.4961 249.566 25.4727V25.7012C249.566 27.5527 249.209 29.2168 248.494 30.6934C247.791 32.1582 246.777 33.3008 245.453 34.1211C244.141 34.9414 242.629 35.3516 240.918 35.3516C238.34 35.3516 236.248 34.4551 234.643 32.6621C233.049 30.8691 232.252 28.4961 232.252 25.543V25.3145ZM235.521 25.7012C235.521 27.8105 236.008 29.5039 236.98 30.7812C237.965 32.0586 239.277 32.6973 240.918 32.6973C242.57 32.6973 243.883 32.0527 244.855 30.7637C245.828 29.4629 246.314 27.6465 246.314 25.3145C246.314 23.2285 245.816 21.541 244.82 20.252C243.836 18.9512 242.523 18.3008 240.883 18.3008C239.277 18.3008 237.982 18.9395 236.998 20.2168C236.014 21.4941 235.521 23.3223 235.521 25.7012Z" fill="white"/>
</g>
<ellipse cx="5.90906" cy="29.1942" rx="5.90906" ry="5.80577" fill="white"/>
<ellipse cx="20.0907" cy="29.1942" rx="5.90906" ry="5.80577" fill="white"/>
<ellipse cx="12.8422" cy="16.8058" rx="5.90906" ry="5.80577" fill="#00A3FF"/>
<defs>
<filter id="filter0_b" x="30.2852" y="4" width="223.281" height="35.3516" filterUnits="userSpaceOnUse" color-interpolation-filters="sRGB">
<feFlood flood-opacity="0" result="BackgroundImageFix"/>
<feGaussianBlur in="BackgroundImage" stdDeviation="2"/>
<feComposite in2="SourceAlpha" operator="in" result="effect1_backgroundBlur"/>
<feBlend mode="normal" in="SourceGraphic" in2="effect1_backgroundBlur" result="shape"/>
</filter>
</defs>
</svg>
